<svg id="Layer_3" height="512" viewBox="0 0 64 64" width="512" xmlns="http://www.w3.org/2000/svg" data-name="Layer 3"><path d="m7 44h-2v-16a4 4 0 0 1 4-4h4v2h-4a2 2 0 0 0 -2 2z" fill="#e2e7f6"/><path d="m52 44v-3a10 10 0 0 0 -10-10h-20a10 10 0 0 0 -10 10v3z" fill="#4c6cb5"/><path d="m46 37v-5.162a9.957 9.957 0 0 0 -4-.838h-20a10 10 0 0 0 -9.95 9h30.95a3 3 0 0 0 3-3z" fill="#5e87ca"/><path d="m28 26v5l4 3 4-3v-5" fill="#f2b9a1"/><path d="m42 31-6 7-4-4 4-3z" fill="#93bee5"/><path d="m22 31 6 7 4-4-4-3z" fill="#93bee5"/><path d="m21 15a19.5 19.5 0 0 1 -1-6.162 6.837 6.837 0 0 1 6.838-6.838h10.324a6.837 6.837 0 0 1 6.838 6.838 19.5 19.5 0 0 1 -1 6.162z" fill="#686868"/><path d="m2 44h60v6h-60z" fill="#939393"/><path d="m59 46v-2h-57v3h56a1 1 0 0 0 1-1z" fill="#b5b5b5"/><path d="m6 50v12h52v-12" fill="#474747"/><path d="m54 55v-5h-48v8h45a3 3 0 0 0 3-3z" fill="#5b5b5b"/><path d="m41 13v6a9 9 0 0 1 -9 9 9 9 0 0 1 -9-9v-6a2 2 0 0 1 2-2h2.172a6.826 6.826 0 0 1 4.828 2 6.826 6.826 0 0 1 4.828-2h2.172a2 2 0 0 1 2 2z" fill="#fbe1ca"/><path d="m41 15h2a2 2 0 0 1 2 2 2 2 0 0 1 -2 2h-2" fill="#f2b9a1"/><path d="m23 15h-2a2 2 0 0 0 -2 2 2 2 0 0 0 2 2h2" fill="#f2b9a1"/><rect fill="#474747" height="4" rx="2" width="8" x="12" y="23"/><path d="m18 23h-4a2 2 0 0 0 -2 2h4a2 2 0 0 0 2-2z" fill="#5b5b5b"/><path d="m62 43h-9v-2a11.013 11.013 0 0 0 -11-11h-5v-2.353a10.008 10.008 0 0 0 4.949-7.647h1.051a3 3 0 0 0 1.248-5.72 20.407 20.407 0 0 0 .752-5.442 7.847 7.847 0 0 0 -7.838-7.838h-10.324a7.847 7.847 0 0 0 -7.838 7.838 20.407 20.407 0 0 0 .752 5.442 3 3 0 0 0 1.248 5.72h1.051a10.008 10.008 0 0 0 4.949 7.647v2.353h-5a11.013 11.013 0 0 0 -11 11v2h-4v-15a2 2 0 0 1 2-2h2.184a3 3 0 0 0 2.816 2h4a3 3 0 0 0 0-6h-4a3 3 0 0 0 -2.816 2h-2.184a4 4 0 0 0 -4 4v15h-3a1 1 0 0 0 -1 1v6a1 1 0 0 0 1 1h3v11a1 1 0 0 0 1 1h52a1 1 0 0 0 1-1v-11h3a1 1 0 0 0 1-1v-6a1 1 0 0 0 -1-1zm-48-19h4a1 1 0 0 1 0 2h-4a1 1 0 0 1 0-2zm13.667 8 2.811 2.108-2.421 2.421-3.883-4.529zm8.666 0h3.493l-3.883 4.529-2.421-2.421zm6.667-14h-1v-2h1a1 1 0 0 1 0 2zm-16.162-15h10.324a5.845 5.845 0 0 1 5.838 5.838 18.443 18.443 0 0 1 -.751 5.162h-.249v-1a3 3 0 0 0 -3-3h-2.172a7.894 7.894 0 0 0 -4.828 1.668 7.894 7.894 0 0 0 -4.828-1.668h-2.172a3 3 0 0 0 -3 3v1h-.249a18.443 18.443 0 0 1 -.751-5.162 5.845 5.845 0 0 1 5.838-5.838zm-6.838 14a1 1 0 0 1 1-1h1v2h-1a1 1 0 0 1 -1-1zm4 2v-6a1 1 0 0 1 1-1h2.172a5.868 5.868 0 0 1 4.121 1.707 1 1 0 0 0 1.414 0 5.868 5.868 0 0 1 4.121-1.707h2.172a1 1 0 0 1 1 1v6a8 8 0 0 1 -16 0zm8 10a9.986 9.986 0 0 0 3-.461v1.961l-3 2.25-3-2.25v-1.961a9.986 9.986 0 0 0 3 .461zm-19 12a9 9 0 0 1 8.56-8.978l5.681 6.628a1 1 0 0 0 .721.349h.038a1 1 0 0 0 .707-.293l3.293-3.292 3.293 3.293a1 1 0 0 0 .707.293h.038a1 1 0 0 0 .721-.349l5.681-6.628a9 9 0 0 1 8.56 8.977v2h-38zm44 20h-50v-10h50zm4-12h-58v-4h58z"/></svg>